<?xml version="1.0" ?><!DOCTYPE svg  PUBLIC '-//W3C//DTD SVG 1.1//EN'  'http://www.w3.org/Graphics/SVG/1.1/DTD/svg11.dtd'><svg height="512px" style="enable-background:new 0 0 512 512;" version="1.1" viewBox="0 0 512 512" width="512px" xml:space="preserve" xmlns="http://www.w3.org/2000/svg" xmlns:xlink="http://www.w3.org/1999/xlink"><g id="_x36_31_x2C__Business_x2C__certificate_x2C__contract_x2C__degree_x2C__document"><g><path d="M392.361,53.104H137.698v20.285h233.101c1.913,0,3.488,1.56,3.488,3.462    v308.849h18.074V53.104z M167.15,402.297l0.141,0.028h0.07h0.186l0.141,0.028h0.088h0.056h0.14l0.144,0.027h0.056h0.07h0.141    h0.144h0.042h0.084l0.144,0.028h0.141h0.028h0.116h0.141h0.14h0.014h0.13h0.14h0.144h0.141h0.14h0.032h0.112h0.14h0.056h0.088    h0.141h0.084l0.06-0.028h0.141h0.112h0.028h0.144h0.14l0,0l0.144-0.027h0.141h0.028h0.112h0.144l0.056-0.028h0.07h0.144    l0.098-0.028h0.042h0.144h0.126l0,0l0.141-0.029h0.144h0.028l0.112-0.028h0.144l0.056-0.028c5.9-0.625,11.774-3.035,16.369-6.836    l0.116-0.086l0.168-0.143l0.028-0.028l0.186-0.142l0.07-0.057l0.112-0.113c5.875-5.277,9.535-11.519,10.669-19.973l0.014-0.199    l0.014-0.058l0.014-0.226l0.014-0.115l0.014-0.142l0.014-0.255l0,0l0.028-0.256l0.014-0.141l0.014-0.113l0.014-0.257v-0.028    l0.014-0.227v-0.17l0.018-0.086l0.014-0.254v-0.059v-0.197l0.014-0.199v-0.056v-0.257v-0.111l0.014-0.143v-0.256l0,0l-0.014-0.396    l0,0v-0.396v-0.03l-0.014-0.368v-0.028l-0.032-0.368v-0.029l-0.014-0.369v-0.028l-0.028-0.368v-0.028l-0.042-0.368v-0.029    c-0.495-4.938-1.73-8.766-4.211-13.135l-0.102-0.199l-0.098-0.142c-1.292-2.129-2.822-4.087-4.566-5.845l-0.074-0.057    c-0.709-0.711-1.446-1.392-2.225-2.015h-0.014c-0.769-0.653-1.576-1.249-2.411-1.815l0,0l-1.278-0.824l-0.312-0.197    c-3.036-1.703-5.843-2.895-9.251-3.633l0,0l-0.369-0.057h-0.014l-0.382-0.084l-0.383-0.086l-0.382-0.056l0,0l-0.396-0.058    l-0.383-0.057h-0.014l-0.386-0.057l-0.383-0.058h-0.014l-0.383-0.028l0,0l-0.396-0.056l0,0l-0.396-0.028l-0.396-0.029l-0.4-0.028    h-0.014h-0.397l0,0l-0.396-0.028h-0.014h-0.396h-0.396l0,0h-0.414l0,0h-0.411l0,0c-6.608,0.284-12.511,2.185-17.958,6.242    l-0.298,0.228l-0.298,0.227l-0.298,0.227l-0.298,0.256l-0.281,0.227l-0.284,0.256l-0.284,0.255l-0.284,0.227l-0.285,0.256    l-0.256,0.254l-0.281,0.285l-0.256,0.256l-0.284,0.254l-0.256,0.285l-0.256,0.283l-0.253,0.255l-0.256,0.284l-0.242,0.283h-0.014    l-0.225,0.283l0,0l-0.256,0.285l-0.456,0.595h-0.014l-0.453,0.597l0,0l-0.229,0.313l-0.21,0.313l0,0l-0.428,0.623h-0.014    l-0.211,0.312l0,0l-0.2,0.313l0,0l-0.197,0.313l0,0l-0.2,0.313l0,0l-0.2,0.341l-0.197,0.312l0,0l-0.172,0.341h-0.014l-0.182,0.34    l0,0c-2.043,3.829-3.124,7.375-3.619,11.745l0,0l-0.042,0.397l0,0l-0.028,0.397l-0.028,0.396l-0.028,0.397l0,0l-0.014,0.397l0,0    l-0.014,0.396l0,0v0.427v0.396l0,0v0.256v0.143v0.111v0.285l0,0v0.254l0.014,0.143v0.113l0.014,0.255v0.03l0.014,0.227l0.014,0.17    v0.113l0.028,0.227v0.057l0.014,0.229l0.014,0.17v0.084l0.028,0.256l0.014,0.057l0.014,0.198l0.028,0.198v0.058l0.028,0.255    l0.014,0.058l0.014,0.198l0.028,0.198v0.028C140.878,390.068,152.652,401.105,167.15,402.297z M184.852,435.548v-19.037v-0.086    v-10.129c-5.573,2.385-11.406,3.349-17.319,3.036l-0.099-0.028h-0.144h-0.014l-0.481-0.028h-0.014l-0.172-0.027h-0.056h-0.112    l-0.144-0.028h-0.014l-0.667-0.058h-0.056c-3.801-0.425-7.461-1.391-10.865-2.866v10.129v0.086v19.405l13.378-12.143    c1.348-1.248,3.447-1.22,4.766,0.057L184.852,435.548z M178.98,361.84c-2.355-2.355-5.619-3.803-9.191-3.803    c-3.52,0-6.696,1.39-9.037,3.633l-0.158,0.17c-2.355,2.354-3.815,5.617-3.815,9.191s1.46,6.838,3.787,9.193    c2.369,2.354,5.619,3.801,9.223,3.801c3.573,0,6.836-1.446,9.177-3.801c2.355-2.355,3.815-5.619,3.815-9.193    S181.307,364.194,178.98,361.84z M169.789,351.059c5.489,0,10.483,2.24,14.098,5.843c3.618,3.604,5.861,8.626,5.861,14.13    s-2.243,10.496-5.847,14.101c-3.629,3.631-8.623,5.874-14.112,5.874c-5.521,0-10.5-2.243-14.115-5.846    c-3.618-3.633-5.861-8.625-5.861-14.129s2.243-10.525,5.847-14.13l0.197-0.17C159.46,353.215,164.371,351.059,169.789,351.059z     M330.184,108.711H149.771v20.258h180.413V108.711z M146.283,101.73h187.393c1.912,0,3.475,1.561,3.475,3.49v27.236    c0,1.93-1.563,3.49-3.475,3.49H146.283c-1.917,0-3.489-1.561-3.489-3.49v-27.236C142.794,103.291,144.366,101.73,146.283,101.73z     M84.108,169.113v-6.27H58.998v6.27H84.108z M84.108,155.863v-23.207c0-0.624-0.285-1.221-0.699-1.646l-0.126-0.142    c-0.397-0.341-0.938-0.539-1.502-0.539H59.268l-0.214,0.057l-0.056,0.197v25.279H84.108z M58.998,330.857h9.051V190.193    c0-1.93,1.576-3.49,3.488-3.49c1.93,0,3.492,1.561,3.492,3.49v140.664h9.079V176.092H58.998V330.857z M84.108,337.836H58.998    v14.129l12.54,26.443l12.571-26.443V337.836z M146.283,175.186c-1.917,0-3.489-1.59-3.489-3.49c0-1.93,1.572-3.49,3.489-3.49    h68.628c1.93,0,3.492,1.561,3.492,3.49c0,1.9-1.562,3.49-3.492,3.49H146.283z M146.283,199.131c-1.917,0-3.489-1.561-3.489-3.463    c0-1.928,1.572-3.488,3.489-3.488h175.545c1.93,0,3.492,1.561,3.492,3.488c0,1.902-1.563,3.463-3.492,3.463H146.283z     M146.283,223.104c-1.917,0-3.489-1.56-3.489-3.49c0-1.9,1.572-3.488,3.489-3.488h175.545c1.93,0,3.492,1.588,3.492,3.488    c0,1.931-1.563,3.49-3.492,3.49H146.283z M146.283,247.077c-1.917,0-3.489-1.56-3.489-3.49c0-1.929,1.572-3.488,3.489-3.488    h175.545c1.93,0,3.492,1.56,3.492,3.488c0,1.931-1.563,3.49-3.492,3.49H146.283z M146.283,271.051    c-1.917,0-3.489-1.561-3.489-3.488c0-1.931,1.572-3.49,3.489-3.49h175.545c1.93,0,3.492,1.56,3.492,3.49    c0,1.928-1.563,3.488-3.492,3.488H146.283z M146.283,295.023c-1.917,0-3.489-1.56-3.489-3.488c0-1.93,1.572-3.49,3.489-3.49    h175.545c1.93,0,3.492,1.561,3.492,3.49c0,1.929-1.563,3.488-3.492,3.488H146.283z M253.199,318.999    c-1.93,0-3.488-1.59-3.488-3.49c0-1.929,1.558-3.49,3.488-3.49h68.629c1.93,0,3.492,1.562,3.492,3.49c0,1.9-1.563,3.49-3.492,3.49    H253.199z M285.627,388.082c-1.646,0.993-3.787,0.51-4.794-1.134c-1.021-1.618-0.513-3.774,1.119-4.796    c0.07-0.027,26.301-16.256,33.892,1.021c0.51,1.163,1.119,2.101,1.787,2.809c1.445,1.533,3.361,2.186,5.461,2.213    c2.484,0.057,5.306-0.736,8.1-1.958c4.215-1.844,8.271-4.71,11.22-7.461c1.407-1.333,3.604-1.247,4.924,0.142    c1.306,1.391,1.249,3.604-0.155,4.908c-3.477,3.263-8.243,6.61-13.178,8.795c-3.618,1.59-7.404,2.583-10.995,2.525    c-3.944-0.057-7.591-1.361-10.44-4.397c-1.207-1.276-2.257-2.894-3.092-4.767C305.091,375.997,285.684,388.054,285.627,388.082z     M41.577,458.896c-1.913,0-3.489-1.56-3.489-3.488c0-1.902,1.576-3.49,3.489-3.49h307.292c1.927,0,3.489,1.588,3.489,3.49    c0,1.929-1.563,3.488-3.489,3.488H41.577z M221.522,440.199c-1.916,0-3.488-1.56-3.488-3.488c0-1.902,1.572-3.49,3.488-3.49    h212.645c1.912,0,3.488,1.588,3.488,3.49c0,1.929-1.576,3.488-3.488,3.488H221.522z M455.939,440.199    c-1.93,0-3.488-1.56-3.488-3.488c0-1.902,1.559-3.49,3.488-3.49h26.585c1.916,0,3.475,1.588,3.475,3.49    c0,1.929-1.559,3.488-3.475,3.488H455.939z M29.493,440.769c-1.93,0-3.492-1.561-3.492-3.49c0-1.9,1.562-3.461,3.492-3.461    h100.744c1.93,0,3.492,1.561,3.492,3.461c0,1.93-1.562,3.49-3.492,3.49H29.493z M367.307,80.339H134.125h-21.478v332.598h35.067    v-10.527c-1.8-1.275-3.488-2.695-5.05-4.255l-0.196-0.227l-0.228-0.229l-0.099-0.084l-0.087-0.113l-0.354-0.369l-0.183-0.198    h-0.014c-5.506-6.157-8.882-13.505-9.816-21.478l-0.014-0.057l-0.032-0.255l-0.014-0.228l-0.014-0.084l-0.028-0.313l-0.014-0.086    l-0.014-0.227l-0.014-0.255l-0.014-0.058l-0.014-0.313l-0.014-0.112l-0.014-0.228l-0.014-0.255v-0.056l-0.014-0.313v-0.114    l-0.014-0.198l-0.014-0.313l0,0v-0.313v-0.17v-0.17v-0.313l0,0v-0.482v-0.028v-0.483l0,0l0.028-0.482l0,0l0.014-0.48v-0.029    l0.028-0.481l0,0l0.042-0.482l0,0l0.028-0.482l0,0l0.056-0.482l0,0l0.06-0.483l0,0l0.056-0.482l0,0l0.056-0.482l0,0l0.07-0.48l0,0    l0.07-0.455v-0.027l0.088-0.455l0,0l0.084-0.482l0,0l0.084-0.454l0,0l0.112-0.481l0,0l0.102-0.453l0,0l0.098-0.455v-0.028    l0.256-0.907l0,0l0.397-1.361l0,0l0.14-0.427v-0.028l0.144-0.426v-0.028l0.154-0.425c1.916-5.477,5.064-10.385,9.065-14.385    c1.506-1.504,3.152-2.895,4.91-4.142l0,0l1.147-0.795l0,0l0.382-0.255l0,0c6.202-3.83,12.343-5.789,19.692-6.016l0,0l0.481-0.027    l0,0h0.512l0,0h0.481l0,0l0.498,0.027l0,0h0.495l0,0l0.481,0.029l0,0l0.498,0.027l0,0l0.481,0.028h0.014l0.484,0.058l0,0    l0.467,0.028h0.014l0.47,0.056h0.014l0.467,0.059h0.014l0.467,0.057h0.018l0.453,0.084h0.014l0.467,0.058h0.014l0.47,0.084l0,0    l0.453,0.086h0.028l0.453,0.112l0,0l0.457,0.086h0.028l0.453,0.114l0,0l0.457,0.112h0.014l0.892,0.229h0.028l1.348,0.396h0.014    l0.428,0.142h0.014l0.438,0.143l0,0l0.439,0.17c5.478,1.9,10.398,5.05,14.399,9.05l0.14,0.17l0.372,0.37l0.112,0.112l0.197,0.229    l0.116,0.111l0.196,0.229l0.116,0.112l0.182,0.228l0.13,0.113l0.168,0.229l0.13,0.111l0.183,0.229    c5.591,6.523,8.497,14.127,9.107,22.413v0.028l0.028,0.453v0.029l0.014,0.48l0,0l0.014,0.482v0.03l0.014,0.453v0.028v0.482l0,0    v0.313v0.17v0.143l-0.014,0.312v0.056v0.257l-0.014,0.227v0.084l-0.014,0.313v0.086l-0.014,0.227l-0.014,0.284v0.027l-0.028,0.313    v0.143l-0.028,0.17l-0.028,0.313l0,0l-0.028,0.283c-0.214,2.524-0.796,5.306-1.534,7.688l-0.028,0.028l-0.084,0.284l-0.028,0.142    l-0.056,0.141l-0.102,0.285v0.027l-0.099,0.256c-1.93,5.533-5.078,10.525-9.107,14.555l-0.154,0.143l-0.074,0.056l-0.042,0.058    l-0.196,0.17l-0.088,0.084l-0.098,0.115l-0.197,0.17l-0.031,0.027l-0.168,0.171l-0.172,0.142l-0.028,0.028l-0.21,0.198    l-0.102,0.086l-0.098,0.084l-0.214,0.199h-0.028l-0.168,0.17l-0.172,0.143l-0.028,0.027l-0.211,0.17l-0.116,0.086l-0.313,0.285    l-0.042,0.027l-0.168,0.143l-0.172,0.141l-0.028,0.029l-0.224,0.17l-0.116,0.085l-0.098,0.056l-0.214,0.17l-0.042,0.03    l-0.182,0.141l-0.186,0.142l-0.028,0.028l-0.214,0.143l-0.126,0.086l-0.098,0.084l-0.228,0.17v10.527h175.474v-23.663V80.339z" style="fill-rule:evenodd;clip-rule:evenodd;"/></g></g><g id="Layer_1"/></svg>