<?xml version="1.0" ?><!DOCTYPE svg  PUBLIC '-//W3C//DTD SVG 1.1//EN'  'http://www.w3.org/Graphics/SVG/1.1/DTD/svg11.dtd'><svg height="96" version="1.1" viewBox="0 0 96 96" width="96" xmlns="http://www.w3.org/2000/svg" xmlns:xlink="http://www.w3.org/1999/xlink"><path d="M28 28h6.76c3.8-2.524 8.348-4 13.24-4s9.436 1.476 13.244 4h34.756v-14c0-7.72-6.28-14-14-14h-54v28zM68 10c0-1.1 0.9-2 2-2h12c1.1 0 2 0.9 2 2v12c0 1.1-0.9 2-2 2h-12c-1.1 0-2-0.9-2-2v-12z" fill="#000000"/><path d="M57 48c0 4.971-4.029 9-9 9s-9-4.029-9-9c0-4.971 4.029-9 9-9s9 4.029 9 9z" fill="#000000"/><path d="M72 12h8v8h-8v-8z" fill="#000000"/><path d="M65.836 32c3.82 4.252 6.164 9.852 6.164 16 0 13.236-10.764 24-24 24s-24-10.764-24-24c0-6.148 2.344-11.752 6.164-16h-30.164v50c0 7.72 6.28 14 14 14h68c7.72 0 14-6.28 14-14v-50h-30.164z" fill="#000000"/><path d="M16 0h8v28h-8v-28z" fill="#000000"/><path d="M48 68c11.028 0 20-8.968 20-20 0-11.028-8.972-20-20-20s-20 8.972-20 20c0 11.032 8.972 20 20 20zM48 35c7.168 0 13 5.832 13 13s-5.832 13-13 13-13-5.832-13-13 5.832-13 13-13z" fill="#000000"/><path d="M12 28v-27.796c-6.764 0.98-12 6.764-12 13.796v14h12z" fill="#000000"/></svg>